<mxfile host="Electron" modified="2023-12-05T23:00:56.372Z" agent="Mozilla/5.0 (Windows NT 10.0; Win64; x64) AppleWebKit/537.36 (KHTML, like Gecko) draw.io/22.1.2 Chrome/114.0.5735.289 Electron/25.9.4 Safari/537.36" etag="Wvi72Lu9BYPPBBgViiHT" version="22.1.2" type="device">
  <diagram id="C5RBs43oDa-KdzZeNtuy" name="Page-1">
    <mxGraphModel dx="1036" dy="606" grid="1" gridSize="10" guides="1" tooltips="1" connect="1" arrows="1" fold="1" page="1" pageScale="1" pageWidth="827" pageHeight="1169" math="0" shadow="0">
      <root>
        <mxCell id="WIyWlLk6GJQsqaUBKTNV-0" />
        <mxCell id="WIyWlLk6GJQsqaUBKTNV-1" parent="WIyWlLk6GJQsqaUBKTNV-0" />
        <mxCell id="vFbIZF17qloHyvn9tb9g-2" style="edgeStyle=orthogonalEdgeStyle;rounded=0;orthogonalLoop=1;jettySize=auto;html=1;exitX=0.5;exitY=1;exitDx=0;exitDy=0;entryX=0.5;entryY=0;entryDx=0;entryDy=0;" edge="1" parent="WIyWlLk6GJQsqaUBKTNV-1" source="vFbIZF17qloHyvn9tb9g-0" target="vFbIZF17qloHyvn9tb9g-1">
          <mxGeometry relative="1" as="geometry" />
        </mxCell>
        <mxCell id="vFbIZF17qloHyvn9tb9g-0" value="start&lt;br&gt;" style="ellipse;whiteSpace=wrap;html=1;" vertex="1" parent="WIyWlLk6GJQsqaUBKTNV-1">
          <mxGeometry x="354" y="50" width="120" height="80" as="geometry" />
        </mxCell>
        <mxCell id="vFbIZF17qloHyvn9tb9g-4" style="edgeStyle=orthogonalEdgeStyle;rounded=0;orthogonalLoop=1;jettySize=auto;html=1;exitX=0.5;exitY=1;exitDx=0;exitDy=0;entryX=0.5;entryY=0;entryDx=0;entryDy=0;" edge="1" parent="WIyWlLk6GJQsqaUBKTNV-1" source="vFbIZF17qloHyvn9tb9g-1" target="vFbIZF17qloHyvn9tb9g-3">
          <mxGeometry relative="1" as="geometry" />
        </mxCell>
        <mxCell id="vFbIZF17qloHyvn9tb9g-1" value="FILE *file = NULL&lt;br&gt;char arr[100]" style="rounded=0;whiteSpace=wrap;html=1;" vertex="1" parent="WIyWlLk6GJQsqaUBKTNV-1">
          <mxGeometry x="354" y="170" width="120" height="60" as="geometry" />
        </mxCell>
        <mxCell id="vFbIZF17qloHyvn9tb9g-6" style="edgeStyle=orthogonalEdgeStyle;rounded=0;orthogonalLoop=1;jettySize=auto;html=1;exitX=0.5;exitY=1;exitDx=0;exitDy=0;entryX=0.5;entryY=0;entryDx=0;entryDy=0;" edge="1" parent="WIyWlLk6GJQsqaUBKTNV-1" source="vFbIZF17qloHyvn9tb9g-3" target="vFbIZF17qloHyvn9tb9g-5">
          <mxGeometry relative="1" as="geometry" />
        </mxCell>
        <mxCell id="vFbIZF17qloHyvn9tb9g-3" value="file = fopen(&quot;C:\\Users\\Admin\\Desktop\\BTVN1.txt&quot;,&quot;w&quot;);" style="rounded=0;whiteSpace=wrap;html=1;" vertex="1" parent="WIyWlLk6GJQsqaUBKTNV-1">
          <mxGeometry x="354" y="280" width="120" height="60" as="geometry" />
        </mxCell>
        <mxCell id="vFbIZF17qloHyvn9tb9g-8" style="edgeStyle=orthogonalEdgeStyle;rounded=0;orthogonalLoop=1;jettySize=auto;html=1;exitX=0.5;exitY=1;exitDx=0;exitDy=0;entryX=0.5;entryY=0;entryDx=0;entryDy=0;" edge="1" parent="WIyWlLk6GJQsqaUBKTNV-1" source="vFbIZF17qloHyvn9tb9g-5" target="vFbIZF17qloHyvn9tb9g-7">
          <mxGeometry relative="1" as="geometry" />
        </mxCell>
        <mxCell id="vFbIZF17qloHyvn9tb9g-5" value="file!=NULL?" style="rhombus;whiteSpace=wrap;html=1;" vertex="1" parent="WIyWlLk6GJQsqaUBKTNV-1">
          <mxGeometry x="374" y="400" width="80" height="80" as="geometry" />
        </mxCell>
        <mxCell id="vFbIZF17qloHyvn9tb9g-11" style="edgeStyle=orthogonalEdgeStyle;rounded=0;orthogonalLoop=1;jettySize=auto;html=1;exitX=0.5;exitY=1;exitDx=0;exitDy=0;" edge="1" parent="WIyWlLk6GJQsqaUBKTNV-1" source="vFbIZF17qloHyvn9tb9g-7" target="vFbIZF17qloHyvn9tb9g-9">
          <mxGeometry relative="1" as="geometry" />
        </mxCell>
        <mxCell id="vFbIZF17qloHyvn9tb9g-7" value="arr" style="shape=parallelogram;perimeter=parallelogramPerimeter;whiteSpace=wrap;html=1;fixedSize=1;" vertex="1" parent="WIyWlLk6GJQsqaUBKTNV-1">
          <mxGeometry x="354" y="525" width="120" height="60" as="geometry" />
        </mxCell>
        <mxCell id="vFbIZF17qloHyvn9tb9g-13" style="edgeStyle=orthogonalEdgeStyle;rounded=0;orthogonalLoop=1;jettySize=auto;html=1;exitX=0.5;exitY=1;exitDx=0;exitDy=0;entryX=0.5;entryY=0;entryDx=0;entryDy=0;" edge="1" parent="WIyWlLk6GJQsqaUBKTNV-1" source="vFbIZF17qloHyvn9tb9g-9" target="vFbIZF17qloHyvn9tb9g-12">
          <mxGeometry relative="1" as="geometry" />
        </mxCell>
        <mxCell id="vFbIZF17qloHyvn9tb9g-9" value="nio dung file" style="shape=parallelogram;perimeter=parallelogramPerimeter;whiteSpace=wrap;html=1;fixedSize=1;" vertex="1" parent="WIyWlLk6GJQsqaUBKTNV-1">
          <mxGeometry x="354" y="640" width="120" height="60" as="geometry" />
        </mxCell>
        <mxCell id="vFbIZF17qloHyvn9tb9g-15" style="edgeStyle=orthogonalEdgeStyle;rounded=0;orthogonalLoop=1;jettySize=auto;html=1;exitX=0.5;exitY=1;exitDx=0;exitDy=0;" edge="1" parent="WIyWlLk6GJQsqaUBKTNV-1" source="vFbIZF17qloHyvn9tb9g-12" target="vFbIZF17qloHyvn9tb9g-14">
          <mxGeometry relative="1" as="geometry" />
        </mxCell>
        <mxCell id="vFbIZF17qloHyvn9tb9g-12" value="fclose(file)" style="rounded=0;whiteSpace=wrap;html=1;" vertex="1" parent="WIyWlLk6GJQsqaUBKTNV-1">
          <mxGeometry x="354" y="740" width="120" height="60" as="geometry" />
        </mxCell>
        <mxCell id="vFbIZF17qloHyvn9tb9g-14" value="end" style="ellipse;whiteSpace=wrap;html=1;" vertex="1" parent="WIyWlLk6GJQsqaUBKTNV-1">
          <mxGeometry x="354" y="850" width="120" height="80" as="geometry" />
        </mxCell>
      </root>
    </mxGraphModel>
  </diagram>
</mxfile>
